<?xml version="1.0" standalone="no"?>
<!DOCTYPE svg PUBLIC "-//W3C//DTD SVG 20010904//EN"
 "http://www.w3.org/TR/2001/REC-SVG-20010904/DTD/svg10.dtd">
<svg version="1.0" xmlns="http://www.w3.org/2000/svg"
 width="500.000000pt" height="500.000000pt" viewBox="0 0 500.000000 500.000000"
 preserveAspectRatio="xMidYMid meet">
<metadata>
Created by potrace 1.14, written by Peter Selinger 2001-2017
</metadata>
<g transform="translate(0.000000,500.000000) scale(0.100000,-0.100000)"
fill="#000000" stroke="none">
<path d="M2427 4534 c-1 -1 -46 -4 -101 -8 -54 -3 -102 -8 -105 -11 -4 -2 -27
-7 -52 -10 -99 -13 -370 -91 -459 -131 -106 -48 -221 -108 -250 -129 -19 -14
-39 -25 -46 -25 -7 0 -14 -3 -16 -7 -1 -5 -23 -21 -48 -38 -25 -16 -59 -41
-76 -55 -18 -14 -47 -36 -65 -50 -43 -31 -234 -222 -274 -273 -17 -21 -42 -52
-56 -70 -99 -123 -228 -363 -290 -539 -54 -152 -83 -276 -114 -493 -8 -51 -7
-335 1 -400 5 -49 28 -181 38 -220 2 -11 12 -51 21 -89 93 -392 362 -807 695
-1072 313 -248 651 -385 1080 -439 52 -6 343 -7 380 -1 14 3 47 7 73 11 157
20 384 81 532 145 166 71 372 197 514 315 29 24 232 228 246 247 6 8 28 36 50
63 23 28 58 77 79 110 21 33 46 71 56 86 21 29 111 206 135 264 70 168 137
436 151 600 5 66 4 347 -1 385 -21 141 -30 187 -51 275 -177 752 -784 1346
-1539 1509 -141 30 -167 34 -260 42 -64 5 -244 11 -248 8z"/>
</g>
</svg>
